<?xml version="1.0" encoding="UTF-8"?>
<!DOCTYPE svg PUBLIC "-//W3C//DTD SVG 1.1//EN" "http://www.w3.org/Graphics/SVG/1.1/DTD/svg11.dtd">
<svg xmlns="http://www.w3.org/2000/svg" xmlns:xlink="http://www.w3.org/1999/xlink" version="1.1" width="441px" height="289px" viewBox="-0.5 -0.5 441 289"><defs/><g><path d="M 307 163 L 307 137 L 407 137 L 407 163" fill="#dae8fc" stroke="#6c8ebf" stroke-miterlimit="10" pointer-events="all"/><path d="M 307 163 L 307 189 L 407 189 L 407 163" fill="none" stroke="#6c8ebf" stroke-miterlimit="10" pointer-events="none"/><path d="M 307 163 L 407 163" fill="none" stroke="#6c8ebf" stroke-miterlimit="10" pointer-events="none"/><g fill="#000000" font-family="Helvetica" font-weight="bold" pointer-events="none" text-anchor="middle" font-size="12px"><text x="356.5" y="154.5">Exception</text></g><rect x="307" y="163" width="100" height="26" fill="#dae8fc" stroke="#6c8ebf" pointer-events="none"/><path d="M 124.5 33 L 124.5 7 L 296.5 7 L 296.5 33" fill="#f8cecc" stroke="#b85450" stroke-miterlimit="10" pointer-events="none"/><path d="M 124.5 33 L 124.5 59 L 296.5 59 L 296.5 33" fill="none" stroke="#b85450" stroke-miterlimit="10" pointer-events="none"/><path d="M 124.5 33 L 296.5 33" fill="none" stroke="#b85450" stroke-miterlimit="10" pointer-events="none"/><g fill="#000000" font-family="Helvetica" font-weight="bold" pointer-events="none" text-anchor="middle" font-size="12px"><text x="210" y="24.5">BaseException</text></g><rect x="124.5" y="33" width="172" height="26" fill="#f8cecc" stroke="#b85450" pointer-events="none"/><path d="M 357 137 L 270.86 69.5" fill="none" stroke="#b0b0b0" stroke-miterlimit="10" pointer-events="none"/><path d="M 257.48 59.01 L 276.1 62.81 L 265.61 76.19 Z" fill="none" stroke="#b0b0b0" stroke-miterlimit="10" pointer-events="none"/><path d="M 151 163 L 151 137 L 270 137 L 270 163" fill="#f8cecc" stroke="#b85450" stroke-miterlimit="10" pointer-events="none"/><path d="M 151 163 L 151 189 L 270 189 L 270 163" fill="none" stroke="#b85450" stroke-miterlimit="10" pointer-events="none"/><path d="M 151 163 L 270 163" fill="none" stroke="#b85450" stroke-miterlimit="10" pointer-events="none"/><g fill="#000000" font-family="Helvetica" font-weight="bold" pointer-events="none" text-anchor="middle" font-size="12px"><text x="210" y="154.5">KeyboardInterupt</text></g><rect x="151" y="163" width="119" height="26" fill="#f8cecc" stroke="#b85450" pointer-events="none"/><path d="M 0 163 L 0 137 L 119 137 L 119 163" fill="#f8cecc" stroke="#b85450" stroke-miterlimit="10" pointer-events="none"/><path d="M 0 163 L 0 189 L 119 189 L 119 163" fill="none" stroke="#b85450" stroke-miterlimit="10" pointer-events="none"/><path d="M 0 163 L 119 163" fill="none" stroke="#b85450" stroke-miterlimit="10" pointer-events="none"/><g fill="#000000" font-family="Helvetica" font-weight="bold" pointer-events="none" text-anchor="middle" font-size="12px"><text x="59" y="154.5">SystemExit</text></g><rect x="0" y="163" width="119" height="26" fill="#f8cecc" stroke="#b85450" pointer-events="none"/><path d="M 59.5 137 L 149.66 70.44" fill="none" stroke="#b0b0b0" stroke-miterlimit="10" pointer-events="none"/><path d="M 163.33 60.34 L 154.7 77.28 L 144.61 63.6 Z" fill="none" stroke="#b0b0b0" stroke-miterlimit="10" pointer-events="none"/><path d="M 210.5 137 L 210.5 77.12" fill="none" stroke="#b0b0b0" stroke-miterlimit="10" pointer-events="none"/><path d="M 210.5 60.12 L 219 77.12 L 202 77.12 Z" fill="none" stroke="#b0b0b0" stroke-miterlimit="10" pointer-events="none"/><path d="M 281 262 L 281 236 L 440 236 L 440 262" fill="#dae8fc" stroke="#6c8ebf" stroke-miterlimit="10" pointer-events="none"/><path d="M 281 262 L 281 288 L 440 288 L 440 262" fill="none" stroke="#6c8ebf" stroke-miterlimit="10" pointer-events="none"/><path d="M 281 262 L 440 262" fill="none" stroke="#6c8ebf" stroke-miterlimit="10" pointer-events="none"/><g fill="#000000" font-family="Helvetica" font-weight="bold" pointer-events="none" text-anchor="middle" font-size="12px"><text x="360" y="253.5">Most Other Exceptions</text></g><rect x="281" y="262" width="159" height="26" fill="#dae8fc" stroke="#6c8ebf" pointer-events="none"/><path d="M 360.68 236 L 360.88 206.12" fill="none" stroke="#b0b0b0" stroke-miterlimit="10" pointer-events="none"/><path d="M 360.99 189.12 L 369.38 206.18 L 352.38 206.06 Z" fill="none" stroke="#b0b0b0" stroke-miterlimit="10" pointer-events="none"/></g></svg>